<svg width="50" height="50" viewBox="0 0 50 50" fill="none" xmlns="http://www.w3.org/2000/svg">
<path d="M8.33333 12.5L21.0576 22.1089L21.0618 22.1124C22.4747 23.1485 23.1815 23.6669 23.9557 23.8671C24.6401 24.0441 25.3594 24.0441 26.0437 23.8671C26.8186 23.6667 27.5275 23.1468 28.9429 22.1089C28.9429 22.1089 37.1043 15.8457 41.6667 12.5M6.25 32.9171V17.0837C6.25 14.7502 6.25 13.5825 6.70414 12.6912C7.10361 11.9072 7.74057 11.2703 8.52458 10.8708C9.41588 10.4167 10.5835 10.4167 12.9171 10.4167H37.0837C39.4173 10.4167 40.5824 10.4167 41.4737 10.8708C42.2577 11.2703 42.8968 11.9072 43.2963 12.6912C43.75 13.5817 43.75 14.7479 43.75 17.0769V32.9241C43.75 35.2531 43.75 36.4177 43.2963 37.3081C42.8968 38.0921 42.2577 38.7302 41.4737 39.1296C40.5833 39.5833 39.4188 39.5833 37.0898 39.5833H12.9102C10.5812 39.5833 9.415 39.5833 8.52458 39.1296C7.74057 38.7302 7.10361 38.0921 6.70414 37.3081C6.25 36.4168 6.25 35.2506 6.25 32.9171Z" stroke="white" stroke-width="3" stroke-linecap="round" stroke-linejoin="round"/>
</svg>
